<svg width="24" height="25" viewBox="0 0 24 25" fill="none" xmlns="http://www.w3.org/2000/svg">
<g opacity="0.3">
<path d="M20 12.1656C20 11.0626 19.103 10.1656 18 10.1656H17V7.16565C17 4.40865 14.757 2.16565 12 2.16565C9.243 2.16565 7 4.40865 7 7.16565V10.1656H6C4.897 10.1656 4 11.0626 4 12.1656V20.1656C4 21.2687 4.897 22.1656 6 22.1656H18C19.103 22.1656 20 21.2687 20 20.1656V12.1656ZM9 7.16565C9 5.51165 10.346 4.16565 12 4.16565C13.654 4.16565 15 5.51165 15 7.16565V10.1656H9V7.16565Z" fill="#333333"/>
</g>
</svg>
