<svg width="40" height="40" viewBox="0 0 40 40" fill="none" xmlns="http://www.w3.org/2000/svg">
<rect width="40" height="40" rx="20" fill="white"/>
<path d="M20 22.5C17.3583 22.5 15.009 23.7755 13.5134 25.755C13.1915 26.181 13.0305 26.394 13.0358 26.6819C13.0398 26.9043 13.1795 27.1849 13.3545 27.3222C13.581 27.5 13.8949 27.5 14.5227 27.5H25.4773C26.1051 27.5 26.4191 27.5 26.6456 27.3222C26.8206 27.1849 26.9602 26.9043 26.9643 26.6819C26.9696 26.394 26.8086 26.181 26.4867 25.755C24.991 23.7755 22.6418 22.5 20 22.5Z" stroke="#475467" stroke-width="1.66667" stroke-linecap="round" stroke-linejoin="round"/>
<path d="M20 20C22.0711 20 23.75 18.3211 23.75 16.25C23.75 14.1789 22.0711 12.5 20 12.5C17.929 12.5 16.25 14.1789 16.25 16.25C16.25 18.3211 17.929 20 20 20Z" stroke="#475467" stroke-width="1.66667" stroke-linecap="round" stroke-linejoin="round"/>
</svg>
